<?xml version="1.0" encoding="utf-8"?>
<!-- Generator: Adobe Illustrator 18.0.0, SVG Export Plug-In . SVG Version: 6.00 Build 0)  -->
<!DOCTYPE svg PUBLIC "-//W3C//DTD SVG 1.1//EN" "http://www.w3.org/Graphics/SVG/1.1/DTD/svg11.dtd">
<svg version="1.1" id="Layer_1" xmlns="http://www.w3.org/2000/svg" xmlns:xlink="http://www.w3.org/1999/xlink" x="0px" y="0px"
	 width="20px" height="21.3px" viewBox="0 0 20 21.3" enable-background="new 0 0 20 21.3" xml:space="preserve">
<g>
	<g>
		<defs>
			<rect id="SVGID_1_" y="0" width="20" height="21.3"/>
		</defs>
		<clipPath id="SVGID_2_">
			<use xlink:href="#SVGID_1_"  overflow="visible"/>
		</clipPath>
		<path clip-path="url(#SVGID_2_)" fill="#E86124" d="M19.7,19l-4.9-5.1c1.3-1.5,2-3.4,2-5.4c0-4.6-3.8-8.4-8.4-8.4
			C3.8,0.1,0,3.9,0,8.5c0,4.6,3.8,8.4,8.4,8.4c1.7,0,3.4-0.5,4.8-1.5l5,5.2c0.2,0.2,0.5,0.3,0.8,0.3c0.3,0,0.6-0.1,0.8-0.3
			C20.1,20.2,20.1,19.5,19.7,19L19.7,19z M8.4,2.3c3.4,0,6.2,2.8,6.2,6.2c0,3.4-2.8,6.2-6.2,6.2c-3.4,0-6.2-2.8-6.2-6.2
			C2.2,5.1,5,2.3,8.4,2.3L8.4,2.3z M8.4,2.3"/>
	</g>
</g>
</svg>
